HIERARCHY
ROOT Hips
{
	OFFSET 0.000000 0.000000 0.000000 
	CHANNELS 6 Xposition Yposition Zposition Zrotation Yrotation Xrotation
	JOINT LeftUpLeg
	{
		OFFSET 1.363060 -1.794630 0.839290 
		CHANNELS 3 Zrotation Yrotation Xrotation
		JOINT LeftLeg
		{
			OFFSET 2.448110 -6.726130 0.000000 
			CHANNELS 3 Zrotation Yrotation Xrotation
			JOINT LeftFoot
			{
				OFFSET 2.562200 -7.039590 0.000000 
				CHANNELS 3 Zrotation Yrotation Xrotation
				JOINT LeftToeBase
				{
					OFFSET 0.157640 -0.433110 2.322550 
					CHANNELS 3 Zrotation Yrotation Xrotation
					End Site
					{
						OFFSET 0.000000 0.000000 0.000000 
					}
				}
			}
		}
	}
	JOINT RightUpLeg
	{
		OFFSET -1.305520 -1.794630 0.839290 
		CHANNELS 3 Zrotation Yrotation Xrotation
		JOINT RightLeg
		{
			OFFSET -2.542530 -6.985550 0.000000 
			CHANNELS 3 Zrotation Yrotation Xrotation
			JOINT RightFoot
			{
				OFFSET -2.568260 -7.056230 0.000000 
				CHANNELS 3 Zrotation Yrotation Xrotation
				JOINT RightToeBase
				{
					OFFSET -0.164730 -0.452590 2.363150 
					CHANNELS 3 Zrotation Yrotation Xrotation
					End Site
					{
						OFFSET 0.000000 0.000000 0.000000 
					}
				}
			}
		}
	}
	JOINT Spine
	{
		OFFSET 0.028270 2.035590 -0.193380 
		CHANNELS 3 Zrotation Yrotation Xrotation
		JOINT Spine1
		{
			OFFSET 0.056720 2.048850 -0.042750 
			CHANNELS 3 Zrotation Yrotation Xrotation
			JOINT Neck1
			{
				OFFSET -0.054170 1.746240 0.172020 
				CHANNELS 3 Zrotation Yrotation Xrotation
				JOINT Head
				{
					OFFSET 0.104070 1.761360 -0.123970 
					CHANNELS 3 Zrotation Yrotation Xrotation
					End Site
					{
						OFFSET 0.000000 0.000000 0.000000 
					}
				}
			}
			JOINT LeftArm
			{
				OFFSET 3.362410 1.200890 -0.311210 
				CHANNELS 3 Zrotation Yrotation Xrotation
				JOINT LeftForeArm
				{
					OFFSET 4.983000 -0.000000 -0.000000 
					CHANNELS 3 Zrotation Yrotation Xrotation
					JOINT LeftHand
					{
						OFFSET 3.483560 -0.000000 -0.000000 
						CHANNELS 3 Zrotation Yrotation Xrotation
						JOINT LeftHandIndex1
						{
							OFFSET 0.715260 -0.000000 -0.000000 
							CHANNELS 3 Zrotation Yrotation Xrotation
							End Site
							{
								OFFSET 0.000000 0.000000 0.000000 
							}
						}
					}
				}
			}
			JOINT RightArm
			{
				OFFSET -3.136600 1.374050 -0.404650 
				CHANNELS 3 Zrotation Yrotation Xrotation
				JOINT RightForeArm
				{
					OFFSET -5.241900 -0.000000 -0.000000 
					CHANNELS 3 Zrotation Yrotation Xrotation
					JOINT RightHand
					{
						OFFSET -3.444170 -0.000000 -0.000000 
						CHANNELS 3 Zrotation Yrotation Xrotation
						JOINT RightHandIndex1
						{
							OFFSET -0.622530 -0.000000 -0.000000 
							CHANNELS 3 Zrotation Yrotation Xrotation
							End Site
							{
								OFFSET 0.000000 0.000000 0.000000 
							}
						}
					}
				}
			}
		}
	}
}
MOTION
Frames: 10
Frame Time: 0.041667
1.913869 11.862337 1.467412 5.396200 -6.555589 7.012582 -17.865100 -16.635104 -74.829327 19.994407 26.137901 92.308483 0.885966 -1.067852 -14.776931 0.031900 1.153600 3.171500 9.333652 6.031275 -8.627975 -20.755937 -18.327614 95.235997 -3.420370 9.722461 -23.568199 -4.529500 12.833500 -38.748500 0.674515 -3.513580 -4.618867 -4.954413 -1.510550 -2.549557 5.889129 7.477947 10.257008 -2.889700 4.659300 11.902000 -51.552237 -26.841221 42.688560 53.504876 -47.736136 -18.461398 -0.787203 1.373326 1.720149 -7.125000 0.000000 0.000000 78.056339 -17.450521 57.439784 -92.358592 54.491441 -49.466638 -0.211311 -1.927917 -19.327058 7.125000 0.000000 0.000000 
1.895624 11.927171 1.414740 5.424889 -6.606806 6.950630 -17.861176 -16.645257 -74.382421 19.612904 26.148607 91.308068 0.812808 -0.887173 -14.315988 0.031700 1.149700 3.160800 9.439357 6.083594 -8.756516 -20.662368 -18.366406 94.944358 -3.430452 9.785369 -23.563421 -4.521600 12.823900 -38.712700 0.681526 -3.498404 -4.627620 -4.878173 -1.503046 -2.534897 5.942949 7.390345 10.280855 -2.853600 4.626400 11.908200 -51.855909 -26.802144 42.766011 53.851912 -47.906075 -18.708699 -0.735893 1.394945 2.185531 -7.125000 0.000000 0.000000 78.146388 -17.444904 57.431673 -92.307031 54.512787 -49.387052 -0.175877 -1.926568 -19.586609 7.125000 0.000000 0.000000 
1.875533 11.994721 1.359571 5.445975 -6.693597 6.886611 -17.851521 -16.606073 -73.914183 19.215945 26.148685 90.267164 0.739834 -0.714112 -13.829392 0.031600 1.147200 3.153900 9.561796 6.141021 -8.906323 -20.566614 -18.408599 94.650788 -3.435749 9.787509 -23.570815 -4.507200 12.806400 -38.648000 0.689649 -3.465591 -4.636605 -4.784774 -1.486689 -2.519875 5.995643 7.301408 10.306031 -2.820200 4.593000 11.916300 -52.221480 -26.700272 42.824076 54.293138 -48.125511 -19.031119 -0.679253 1.425886 2.603165 -7.125000 0.000000 0.000000 78.230575 -17.444132 57.413098 -92.239877 54.535183 -49.294381 -0.141746 -1.922790 -19.771203 7.125000 0.000000 0.000000 
1.854030 12.064768 1.302121 5.457746 -6.803638 6.811738 -17.836918 -16.532719 -73.414485 18.803057 26.138343 89.184110 0.666684 -0.543684 -13.316203 0.031600 1.147700 3.155400 9.701620 6.188549 -9.062521 -20.466141 -18.451571 94.349002 -3.435618 9.731946 -23.587606 -4.487400 12.782200 -38.558600 0.698488 -3.419897 -4.645031 -4.684043 -1.463709 -2.504099 6.046948 7.210026 10.333296 -2.789300 4.558900 11.927100 -52.651285 -26.539852 42.853910 54.828130 -48.391221 -19.429579 -0.621697 1.465217 2.911217 -7.125000 0.000000 0.000000 78.314604 -17.444916 57.371749 -92.131723 54.564911 -49.162047 -0.111913 -1.916334 -19.815034 7.125000 0.000000 0.000000 
1.831658 12.137531 1.242065 5.460520 -6.921328 6.722165 -17.818343 -16.444690 -72.878132 18.372874 26.118091 88.055634 0.592995 -0.369282 -12.775750 0.031800 1.151400 3.165600 9.859096 6.213406 -9.214515 -20.359374 -18.493196 94.033942 -3.430784 9.624275 -23.614071 -4.465400 12.755200 -38.459000 0.707784 -3.367152 -4.652878 -4.584145 -1.437184 -2.491388 6.096683 7.114896 10.361174 -2.761300 4.523600 11.936800 -53.155188 -26.322149 42.850794 55.452337 -48.698510 -19.902218 -0.566831 1.512084 3.084832 -7.125000 0.000000 0.000000 78.404015 -17.447834 57.299572 -91.975294 54.603940 -48.982746 -0.088373 -1.907480 -19.695776 7.125000 0.000000 0.000000 
1.808417 12.212574 1.179511 5.456206 -7.035559 6.617013 -17.796673 -16.357123 -72.305437 17.924911 26.088109 86.880891 0.519110 -0.187985 -12.212240 0.032200 1.159100 3.186800 10.027126 6.201331 -9.362554 -20.246062 -18.532668 93.703543 -3.421697 9.477622 -23.645813 -4.441600 12.725900 -38.350900 0.717323 -3.312582 -4.660044 -4.490709 -1.409943 -2.480174 6.145583 7.016712 10.391817 -2.735100 4.487900 11.949100 -53.728298 -26.050638 42.810484 56.158041 -49.039711 -20.443620 -0.518131 1.563190 3.116073 -7.125000 0.000000 0.000000 78.505356 -17.449099 57.190051 -91.764074 54.654042 -48.752520 -0.075862 -1.898626 -19.427402 7.125000 0.000000 0.000000 
1.784308 12.289680 1.114460 5.444247 -7.145910 6.502232 -17.768415 -16.272824 -71.703165 17.459294 26.047740 85.659318 0.445399 0.003644 -11.630276 0.032700 1.166600 3.207300 10.209145 6.161414 -9.508598 -20.126357 -18.570650 93.357726 -3.410702 9.300790 -23.691259 -4.415400 12.693600 -38.232100 0.726962 -3.256990 -4.666257 -4.405614 -1.382413 -2.466621 6.196052 6.915732 10.424347 -2.708800 4.451900 11.960900 -54.372487 -25.725716 42.728329 56.934698 -49.407655 -21.046814 -0.476531 1.616518 3.016668 -7.125000 0.000000 0.000000 78.624566 -17.438956 57.036944 -91.489716 54.717921 -48.465000 -0.077459 -1.890673 -19.041905 7.125000 0.000000 0.000000 
1.759439 12.368850 1.046801 5.429641 -7.246073 6.378946 -17.738921 -16.202010 -71.071448 16.975462 25.996640 84.389557 0.372090 0.210892 -11.033489 0.032900 1.170200 3.217300 10.399563 6.094663 -9.646656 -20.000355 -18.606352 92.994678 -3.399693 9.112631 -23.748708 -4.384800 12.655600 -38.092600 0.735883 -3.202279 -4.671646 -4.333862 -1.355832 -2.450151 6.248703 6.810938 10.460558 -2.682000 4.415700 11.973400 -55.086233 -25.346706 42.609894 57.773269 -49.795030 -21.705510 -0.441729 1.670115 2.810973 -7.125000 0.000000 0.000000 78.772406 -17.417502 56.833430 -91.167550 54.793610 -48.133774 -0.088553 -1.884770 -18.603195 7.125000 0.000000 0.000000 
1.733157 12.449758 0.976102 5.408051 -7.363109 6.257032 -17.699657 -16.113832 -70.421999 16.474632 25.931299 83.073185 0.299603 0.430469 -10.420857 0.032700 1.168100 3.211600 10.610771 6.041746 -9.791495 -19.868418 -18.644427 92.616869 -3.387788 8.910589 -23.811713 -4.349400 12.611300 -37.930500 0.743544 -3.137506 -4.676207 -4.270578 -1.324599 -2.427156 6.306832 6.703316 10.502096 -2.651300 4.379700 11.988800 -55.862475 -24.911685 42.455366 58.668488 -50.196551 -22.415465 -0.414304 1.722032 2.528793 -7.125000 0.000000 0.000000 78.952721 -17.375096 56.574322 -90.796486 54.882631 -47.751337 -0.098161 -1.877417 -18.145898 7.125000 0.000000 0.000000 
1.705247 12.532837 0.902363 5.377983 -7.497120 6.136829 -17.649660 -16.009162 -69.752578 15.955754 25.850336 81.706649 0.227682 0.667447 -9.790794 0.032100 1.155800 3.177700 10.844711 6.008396 -9.938793 -19.729146 -18.685131 92.219614 -3.375792 8.710465 -23.874359 -4.308400 12.559900 -37.742700 0.750386 -3.064674 -4.679828 -4.214240 -1.289683 -2.398033 6.370669 6.594473 10.548878 -2.616300 4.344600 12.005900 -56.693434 -24.418069 42.266245 59.610480 -50.605498 -23.170127 -0.392411 1.771882 2.190469 -7.125000 0.000000 0.000000 79.166576 -17.302496 56.262074 -90.370531 54.986208 -47.312123 -0.104863 -1.869035 -17.707453 7.125000 0.000000 0.000000 
